<?xml version="1.0" ?><!DOCTYPE svg  PUBLIC '-//W3C//DTD SVG 1.1//EN'  'http://www.w3.org/Graphics/SVG/1.1/DTD/svg11.dtd'><svg height="512px" style="enable-background:new 0 0 512 512;" version="1.1" viewBox="0 0 512 512" width="512px" xml:space="preserve" xmlns="http://www.w3.org/2000/svg" xmlns:xlink="http://www.w3.org/1999/xlink"><g id="lock_x2C__safe_x2C__password_x2C__protected"><g><g><linearGradient gradientUnits="userSpaceOnUse" id="SVGID_1_" x1="256.0117" x2="437.3926" y1="256" y2="256"><stop offset="0" style="stop-color:#11A235"/><stop offset="0.2781" style="stop-color:#0D902D"/><stop offset="0.8338" style="stop-color:#036118"/><stop offset="1" style="stop-color:#005211"/></linearGradient><path d="M256.012,496     c30.838-9.382,57.513-24.772,80.189-42.524c65.221-51.256,101.191-131.157,101.191-214.038V80.822     C321.964,80.822,265.68,26.344,256.012,16V496z" style="fill-rule:evenodd;clip-rule:evenodd;fill:url(#SVGID_1_);"/><linearGradient gradientUnits="userSpaceOnUse" id="SVGID_2_" x1="74.6074" x2="256.0117" y1="256" y2="256"><stop offset="0" style="stop-color:#11A235"/><stop offset="0.2781" style="stop-color:#0D902D"/><stop offset="0.8338" style="stop-color:#036118"/><stop offset="1" style="stop-color:#005211"/></linearGradient><path d="M256.012,496     c-30.859-9.382-57.631-24.772-80.313-42.524C110.59,402.22,74.607,322.318,74.607,239.533V80.822     c115.332,0,171.71-54.479,181.404-64.822V496z" style="fill-rule:evenodd;clip-rule:evenodd;fill:url(#SVGID_2_);"/></g><g><radialGradient cx="256.042" cy="233.8418" gradientTransform="matrix(6.8138 0 0 6.8138 -1488.3801 -1283.6067)" gradientUnits="userSpaceOnUse" id="SVGID_3_" r="3.9526"><stop offset="0" style="stop-color:#000000"/><stop offset="1" style="stop-color:#3D4148"/></radialGradient><path d="M238.141,293.935c0,7.098,4.896,13.603,10.703,16.175     l-0.024,33.098c6.277,0.155,8.179-0.11,14.468,0.034l0.023-33.132c5.735-2.61,11.025-9.127,11.025-16.175     C274.336,270.435,238.141,270.221,238.141,293.935L238.141,293.935z" style="fill-rule:evenodd;clip-rule:evenodd;fill:url(#SVGID_3_);"/><radialGradient cx="256.0078" cy="225.9551" gradientTransform="matrix(6.8138 0 0 6.8138 -1488.3801 -1283.6067)" gradientUnits="userSpaceOnUse" id="SVGID_4_" r="14.9693"><stop offset="0" style="stop-color:#000000"/><stop offset="1" style="stop-color:#3D4148"/></radialGradient><path d="M345.716,345.215l0.023-16.896l0.124-12.289h-0.088     h-31.759v-14.494h31.796h0.051v-14.876h-0.027h-31.819v-14.491h31.847v-21.696c0-10.618-7.677-19.206-17.911-20.9v-37.924     c0-26.85-21.681-48.48-48.513-48.48h-46.831c-26.867,0-48.573,21.63-48.573,48.48v37.924     c-10.128,2.024-17.884,10.499-17.884,20.9v97.46c0,11.594,10.246,20.914,22.548,20.914h135.008     c11.932,0,22.009-7.154,22.009-18.723V345.215z M263.311,310.109l-0.023,33.132c-6.289-0.145-8.19,0.121-14.468-0.034     l0.024-33.098c-5.808-2.572-10.703-9.077-10.703-16.175c0-23.714,36.195-23.5,36.195,0     C274.336,300.982,269.046,307.499,263.311,310.109L263.311,310.109z M302.805,229.106h-93.407c0-8.032-0.445-29.301,0.48-35.339     c2.502-16.507,17.511-27.847,35.333-27.847h22.959c19.566,0,34.635,13.865,34.635,32.945V229.106z" style="fill-rule:evenodd;clip-rule:evenodd;fill:url(#SVGID_4_);"/><radialGradient cx="266.8545" cy="233.7002" gradientTransform="matrix(6.8138 0 0 6.8138 -1488.3801 -1283.6067)" gradientUnits="userSpaceOnUse" id="SVGID_5_" r="1.8131"><stop offset="0" style="stop-color:#000000"/><stop offset="1" style="stop-color:#3D4148"/></radialGradient><polygon points="314.017,301.535 314.017,316.029      345.775,316.029 345.813,301.535    " style="fill-rule:evenodd;clip-rule:evenodd;fill:url(#SVGID_5_);"/><radialGradient cx="266.8584" cy="229.3906" gradientTransform="matrix(6.8138 0 0 6.8138 -1488.3801 -1283.6067)" gradientUnits="userSpaceOnUse" id="SVGID_6_" r="1.8154"><stop offset="0" style="stop-color:#000000"/><stop offset="1" style="stop-color:#3D4148"/></radialGradient><polygon points="314.017,286.659 345.836,286.659      345.863,272.168 314.017,272.168    " style="fill-rule:evenodd;clip-rule:evenodd;fill:url(#SVGID_6_);"/><linearGradient gradientUnits="userSpaceOnUse" id="SVGID_7_" x1="166.1514" x2="345.8633" y1="256.0063" y2="256.0063"><stop offset="0" style="stop-color:#D59632"/><stop offset="0.1301" style="stop-color:#DFB434"/><stop offset="0.2959" style="stop-color:#EEDF36"/><stop offset="0.8265" style="stop-color:#EEDF36"/><stop offset="0.9038" style="stop-color:#EDDD36"/><stop offset="0.9351" style="stop-color:#EBD636"/><stop offset="0.9581" style="stop-color:#E7CA35"/><stop offset="0.977" style="stop-color:#E1B834"/><stop offset="0.9932" style="stop-color:#D9A233"/><stop offset="1" style="stop-color:#D59632"/></linearGradient><path d="M248.819,343.207l0.024-33.098     c-5.808-2.572-10.703-9.077-10.703-16.175c0-23.714,36.195-23.5,36.195,0c0,7.048-5.29,13.564-11.025,16.175l-0.023,33.132     C256.998,343.097,255.097,343.362,248.819,343.207L248.819,343.207z M209.397,229.106h93.407v-30.24     c0-19.08-15.068-32.945-34.635-32.945h-22.959c-17.822,0-32.831,11.339-35.333,27.847     C208.952,199.805,209.397,221.074,209.397,229.106L209.397,229.106z M184.035,229.571v-37.924c0-26.85,21.706-48.48,48.573-48.48     h46.831c26.832,0,48.513,21.63,48.513,48.48v37.924c10.234,1.694,17.911,10.282,17.911,20.9v21.696h-31.847v14.491h31.847v14.876     h-31.847v14.494h31.847l-0.147,14.682l-31.699,0.156l-0.136,14.348h31.835v4.908c0,11.568-10.077,18.723-22.009,18.723H188.699     c-12.302,0-22.548-9.32-22.548-20.914v-97.46C166.151,240.07,173.907,231.596,184.035,229.571L184.035,229.571z M345.863,272.168     " style="fill-rule:evenodd;clip-rule:evenodd;fill:url(#SVGID_7_);"/><radialGradient cx="256.0059" cy="215.7349" gradientTransform="matrix(6.8138 0 0 6.8138 -1488.3801 -1283.6067)" gradientUnits="userSpaceOnUse" id="SVGID_8_" r="8.7099"><stop offset="0" style="stop-color:#000000"/><stop offset="1" style="stop-color:#3D4148"/></radialGradient><path d="M232.608,143.167     c-26.867,0-48.573,21.63-48.573,48.48v37.924h25.362v-0.465v-0.39c-0.024-8.279-0.445-29.002,0.48-34.949     c2.502-16.507,17.511-27.847,35.333-27.847h9.574h13.385c19.566,0,34.635,13.865,34.635,32.945v30.24h-0.023v0.465h25.171     v-37.924c0-26.85-21.681-48.48-48.513-48.48h-24.654H232.608z" style="fill-rule:evenodd;clip-rule:evenodd;fill:url(#SVGID_8_);"/></g></g></g><g id="Layer_1"/></svg>